HIERARCHY
ROOT root
{
	OFFSET	0	13.1	24.9
	CHANNELS 6  Xposition Yposition Zposition Xrotation Yrotation Zrotation
	JOINT spine_1
	{
		OFFSET	0	9.99999	0
		CHANNELS 3  Xrotation Yrotation Zrotation
		JOINT spine_2
		{
			OFFSET	0	112	-10
			CHANNELS 3  Xrotation Yrotation Zrotation
			JOINT spine_3
			{
				OFFSET	0	206.5	19.3
				CHANNELS 3  Xrotation Yrotation Zrotation
				JOINT spine_4
				{
					OFFSET	0	110.4	14.6
					CHANNELS 3  Xrotation Yrotation Zrotation
					JOINT neck_1
					{
						OFFSET	0	71.8	-50.3
						CHANNELS 3  Xrotation Yrotation Zrotation
						JOINT neck_2
						{
							OFFSET	0	86.2	-25.8
							CHANNELS 3  Xrotation Yrotation Zrotation
							JOINT head_ee
							{
								OFFSET	0	179.8	-8.7
								CHANNELS 3  Xrotation Yrotation Zrotation
								End Site
								{
									OFFSET	1	0	0
								}
							}
						}
					}
					JOINT left_clavicle
					{
						OFFSET	-43.2	22.4	-70.8
						CHANNELS 3  Xrotation Yrotation Zrotation
						JOINT left_shoulder
						{
							OFFSET	-93.9	-5.79999	48.7
							CHANNELS 3  Xrotation Yrotation Zrotation
							JOINT left_elbow
							{
								OFFSET	-291.4	-30.8	15.2
								CHANNELS 3  Xrotation Yrotation Zrotation
								JOINT left_lowarm_twist
								{
									OFFSET	-110.7	-3.89999	13.6
									CHANNELS 3  Xrotation Yrotation Zrotation
									JOINT left_hand
									{
										OFFSET	-110.7	-3.89999	13.6
										CHANNELS 3  Xrotation Yrotation Zrotation
										JOINT left_ee
										{
											OFFSET	-80.8	-5.10001	12.1
											CHANNELS 3  Xrotation Yrotation Zrotation
											End Site
											{
												OFFSET	1	0	0
											}
										}
									}
								}
							}
						}
					}
					JOINT right_clavicle
					{
						OFFSET	43.2	22.4	-70.8
						CHANNELS 3  Xrotation Yrotation Zrotation
						JOINT right_shoulder
						{
							OFFSET	93.9	-5.79999	48.7
							CHANNELS 3  Xrotation Yrotation Zrotation
							JOINT right_elbow
							{
								OFFSET	291.4	-30.8	15.2
								CHANNELS 3  Xrotation Yrotation Zrotation
								JOINT right_lowarm_twist
								{
									OFFSET	110.7	-3.89999	13.6
									CHANNELS 3  Xrotation Yrotation Zrotation
									JOINT right_hand
									{
										OFFSET	110.7	-3.89999	13.6
										CHANNELS 3  Xrotation Yrotation Zrotation
										JOINT right_ee
										{
											OFFSET	80.8	-5.10001	12.1
											CHANNELS 3  Xrotation Yrotation Zrotation
											End Site
											{
												OFFSET	1	0	0
											}
										}
									}
								}
							}
						}
					}
				}
			}
		}
	}
	JOINT left_hip
	{
		OFFSET	-82.8	-127.5	0.300001
		CHANNELS 3  Xrotation Yrotation Zrotation
		JOINT left_knee
		{
			OFFSET	-28.2	-396.7	2.2
			CHANNELS 3  Xrotation Yrotation Zrotation
			JOINT left_ankle
			{
				OFFSET	-11.7	-411.3	35.4
				CHANNELS 3  Xrotation Yrotation Zrotation
				JOINT left_toes
				{
					OFFSET	0	-60	-88.6
					CHANNELS 3  Xrotation Yrotation Zrotation
					JOINT left_foot_ee
					{
						OFFSET	-22.5	-16.5	-42.2
						CHANNELS 3  Xrotation Yrotation Zrotation
						End Site
						{
							OFFSET	1	0	0
						}
					}
				}
			}
		}
	}
	JOINT right_hip
	{
		OFFSET	82.8	-127.5	0.300001
		CHANNELS 3  Xrotation Yrotation Zrotation
		JOINT right_knee
		{
			OFFSET	28.2	-396.7	2.2
			CHANNELS 3  Xrotation Yrotation Zrotation
			JOINT right_ankle
			{
				OFFSET	11.7	-411.3	35.4
				CHANNELS 3  Xrotation Yrotation Zrotation
				JOINT right_toes
				{
					OFFSET	0	-60	-88.6
					CHANNELS 3  Xrotation Yrotation Zrotation
					JOINT right_foot_ee
					{
						OFFSET	22.5	-16.5	-42.2
						CHANNELS 3  Xrotation Yrotation Zrotation
						End Site
						{
							OFFSET	1	0	0
						}
					}
				}
			}
		}
	}
}
MOTION
Frames: 15
Frame Time: 0.02
3177.02 653.055 -1669.29 9.89985282286 82.063286877 -9.80687395097 -0.671471 0.320407 -0.386307 -0.671454 0.344339 -0.365136 -0.673717 0.416713 -0.279721 -0.673638 0.367307 -0.342022 -8.07128 10.1978 9.10235 -7.87362 12.6199 11.1988 -0.0 0.0 -0.0 4.68026 22.8318 9.18235 -19.013 -16.2579 65.4606 0.194127 -5.49309 0.00931287 57.3861 -1.54682 -6.86162 -4.84876 29.1715 -14.8096 -0.0 0.0 -0.0 11.6027 15.0583 -23.2903 38.0879 -20.0916 -62.427 2.09888 46.11 -0.893382 73.4338 3.10425 8.19718 1.29003 -29.4663 -18.6958 0.0 0.0 0.0 34.306 -13.731 -2.85779 -14.3853 0.320258 2.17858 -11.1562 25.9634 1.74426 3.33882 -0.0 -0.0 -0.0 0.0 -0.0 -13.8477 22.678 -6.06462 -14.0097 -0.318894 -2.12098 40.8254 -2.52923 4.93253 -0.629247 0.0 0.0 0.0 0.0 0.0 
3147.73914053 648.484 -1669.56598705 8.59038127925 81.6747661049 -7.41230664967 -0.63012 0.228315 -0.552962 -0.629988 0.263038 -0.537314 -0.632463 0.37527 -0.465906 -0.632643 0.296981 -0.519325 -8.06139 11.7838 10.0443 -7.82373 14.9229 12.4596 -0.0 0.0 -0.0 4.93986 22.5237 9.56054 -19.1018 -15.7271 65.5806 0.186633 -5.28227 0.00860919 60.1583 -1.78804 -7.12252 -4.91984 29.2108 -15.1792 -0.0 0.0 -0.0 10.9015 14.8744 -21.7127 34.4006 -17.0958 -63.3107 2.01866 44.9944 -0.836111 72.5214 3.00611 8.1333 0.908276 -29.4235 -16.5209 0.0 0.0 0.0 35.1583 -14.1445 -2.74946 -19.2258 0.304047 2.92087 -15.2101 27.4904 2.40836 5.90074 -0.0 -0.0 -0.0 0.0 -0.0 -16.1692 22.7718 -5.89774 -13.0459 -0.313664 -1.9732 39.6207 -0.464728 4.83993 -0.192453 0.0 0.0 0.0 0.0 0.0 
3120.50427013 648.409 -1667.13552713 8.62581253766 81.8192550543 -6.9483446604 -0.408661 0.0397135 -0.79808 -0.408311 0.0904153 -0.793936 -0.409414 0.260684 -0.755352 -0.410184 0.138123 -0.78704 -7.719 12.7251 10.459 -7.45711 16.3026 13.0295 -0.0 0.0 -0.0 5.21088 22.6356 9.94352 -18.5324 -15.0953 65.9893 0.18686 -5.28865 0.00863016 63.1386 -2.06118 -7.38971 -4.83594 29.1761 -14.7346 -0.0 0.0 -0.0 10.834 11.3031 -21.6556 31.1898 -13.8667 -64.2897 1.96645 44.2441 -0.79944 71.7267 2.92148 8.0764 0.862037 -29.4096 -16.257 0.0 0.0 0.0 35.5033 -14.4661 -2.19435 -23.0446 0.247072 3.50396 -14.7733 29.359 2.36583 8.34662 -0.0 -0.0 -0.0 0.0 -0.0 -17.9802 22.6042 -5.8135 -12.2949 -0.307866 -1.8581 39.3311 0.770321 4.82409 0.214345 -0.0 -0.0 0.0 0.0 0.0 
3094.95775674 652.527 -1664.51190089 4.65608303847 81.7433393163 -2.67826304389 -0.329268 -0.0453408 -0.964236 -0.328751 0.0161051 -0.965167 -0.328758 0.224013 -0.938952 -0.329981 0.0729187 -0.962544 -8.85859 13.351 11.8366 -8.53909 16.8246 14.6285 -0.0 0.0 -0.0 5.73069 22.4521 10.6982 -17.1498 -14.9827 66.212 0.197613 -5.5911 0.00964949 66.1377 -2.34976 -7.64401 -4.80973 28.9932 -14.7184 -0.0 0.0 -0.0 10.5562 9.82995 -21.0563 27.5271 -11.164 -64.1705 1.9518 44.0301 -0.789239 70.9528 2.83983 8.01987 0.701473 -29.2234 -15.3021 0.0 0.0 0.0 35.8777 -15.4937 -2.41145 -24.1926 0.222358 3.67839 -18.901 29.9231 3.04666 8.68269 -0.0 -0.0 -0.0 0.0 -0.0 -19.3079 22.7916 -5.25754 -11.2898 -0.297748 -1.70423 38.3481 1.88854 4.74759 0.51249 -0.0 -0.0 0.0 0.0 0.0 
3031.35977122 660.294 -1658.82701244 7.58579666762 81.6269680976 -4.99914169737 0.00407255 -0.160962 -1.24711 0.00493435 -0.081286 -1.25482 0.00715177 0.18413 -1.2439 0.00499228 -0.014615 -1.25736 -9.1508 14.1677 13.0933 -8.75666 17.576 16.058 -0.0 0.0 -0.0 6.45121 21.8269 11.7877 -15.8386 -14.2995 66.4902 0.21856 -6.17938 0.0117973 72.3745 -2.99041 -8.12287 -4.80613 28.954 -14.7262 -0.0 0.0 -0.0 9.39196 5.0819 -18.5298 19.3424 -5.60581 -65.4515 1.63946 39.0783 -0.581858 66.2489 2.36071 7.65314 0.0192291 -29.1323 -11.4953 0.0 0.0 0.0 34.3833 -16.9099 -0.937155 -30.7786 0.0134563 4.66701 -18.873 29.7815 3.03921 12.7639 -0.0 -0.0 -0.0 0.0 -0.0 -21.7252 22.4177 -4.40288 -10.4827 -0.28767 -1.5808 30.6328 3.23152 4.0077 2.32874 -0.0 -0.0 0.0 0.0 0.0 
2991.92189333 660.506 -1658.74933075 11.809783627 80.72468108 -9.01622829822 0.15641 -0.0717538 -1.3199 0.157379 0.0123731 -1.32179 0.15748 0.28641 -1.29046 0.155164 0.079031 -1.31949 -9.50098 13.5279 11.491 -9.22521 17.5892 14.4141 -0.0 0.0 -0.0 6.63389 21.9017 12.0508 -15.3178 -14.0995 66.4454 0.227996 -6.44399 0.0128348 75.3446 -3.31298 -8.32587 -4.68825 29.1604 -13.9222 -0.0 0.0 -0.0 8.71371 0.788132 -17.0459 15.2409 -2.96056 -66.9552 1.53862 37.3116 -0.519497 62.3557 1.98808 7.3209 -0.639193 -28.9787 -7.85082 0.0 0.0 0.0 32.266 -17.5272 -0.0980346 -36.0929 -0.23709 5.44357 -12.3226 29.5364 1.97112 19.9149 -0.0 -0.0 -0.0 0.0 -0.0 -22.7267 21.4575 -4.11999 -13.431 -0.316052 -2.03223 27.8096 3.42618 3.70314 4.99591 -0.0 -0.0 0.0 0.0 0.0 
2991.87619667 660.506 -1659.58500706 11.4943063195 80.4713650238 -8.69645613215 0.15641 -0.0717538 -1.3199 0.157379 0.0123731 -1.32179 0.15748 0.28641 -1.29046 0.155164 0.079031 -1.31949 -9.50098 13.5279 11.491 -9.22521 17.5892 14.4141 -0.0 0.0 -0.0 6.63389 21.9017 12.0508 -15.3178 -14.0995 66.4454 0.227996 -6.44399 0.0128348 75.3446 -3.31298 -8.32587 -4.68825 29.1604 -13.9222 -0.0 0.0 -0.0 8.71371 0.788132 -17.0459 15.2409 -2.96056 -66.9552 1.53862 37.3116 -0.519497 62.3557 1.98808 7.3209 -0.639193 -28.9787 -7.85082 0.0 0.0 0.0 32.266 -17.5272 -0.0980346 -36.0929 -0.23709 5.44357 -12.3226 29.5364 1.97112 19.9149 -0.0 -0.0 -0.0 0.0 -0.0 -22.7267 21.4575 -4.11999 -13.431 -0.316052 -2.03223 27.8096 3.42618 3.70314 4.99591 -0.0 -0.0 0.0 0.0 0.0 
2962.40565126 659.738 -1657.73169938 13.3686556442 79.5188647687 -10.6008452264 0.377087 -0.192473 -1.26432 0.377969 -0.111638 -1.274 0.380828 0.150197 -1.27003 0.378581 -0.0522489 -1.27781 -10.6707 12.7124 12.1779 -10.3578 15.9108 15.0133 -0.0 0.0 -0.0 6.92176 21.5418 12.5067 -14.2448 -13.5376 66.6444 0.250888 -7.08469 0.0155311 77.4947 -3.55285 -8.46228 -4.66569 28.8817 -13.9914 -0.0 0.0 -0.0 7.95896 -1.65142 -15.4716 11.8802 -0.478771 -67.4588 1.45834 35.8428 -0.471655 60.5567 1.82374 7.15904 -0.762665 -28.8075 -7.11451 0.0 0.0 0.0 30.2953 -19.1205 1.39884 -38.3488 -0.365072 5.76573 -8.49272 29.6849 1.35355 26.0 -0.0 -0.0 -0.0 0.0 -0.0 -22.9027 21.1891 -3.43107 -16.905 -0.319646 -2.56515 25.1012 3.47771 3.39503 8.86088 -0.0 -0.0 0.0 0.0 0.0 
2936.0297073 661.851 -1660.85485284 16.9142794507 78.6762452013 -13.9051319667 0.391716 -0.408402 -1.31366 0.392618 -0.323991 -1.33698 0.400694 -0.0454091 -1.37492 0.398152 -0.261962 -1.3505 -11.371 12.1938 10.6904 -11.1722 16.1076 13.5525 -0.0 0.0 -0.0 7.3026 21.7662 13.0527 -12.6491 -13.2129 66.4591 0.336536 -9.46493 0.0278603 80.4986 -3.89615 -8.63762 -4.43017 27.7598 -13.4391 -0.0 0.0 -0.0 7.67073 -2.94695 -14.8743 9.53915 0.0443841 -67.0537 1.33067 33.3903 -0.399114 57.2557 1.53579 6.84907 -1.24143 -28.7858 -4.51893 0.0 0.0 0.0 28.4061 -19.4597 1.95899 -40.5127 -0.499706 6.0699 -7.7931 28.3046 1.22978 29.6754 -0.0 -0.0 -0.0 0.0 -0.0 -22.5817 19.583 -3.91501 -22.6279 -0.255177 -3.44053 23.8559 4.09663 3.25508 8.75718 -0.0 -0.0 0.0 0.0 0.0 
2907.79805542 664.581 -1662.04915648 18.9837359606 77.6768544526 -15.5175398949 0.346413 -0.379528 -1.49405 0.34761 -0.2837 -1.51516 0.355746 0.0314922 -1.54116 0.352494 -0.212272 -1.5268 -11.4785 11.632 9.60606 -11.3397 15.7777 12.386 -0.0 0.0 -0.0 7.99178 22.0061 14.0548 -11.0553 -11.5084 65.8675 0.425725 -11.9089 0.0444036 80.9525 -3.94881 -8.66255 -4.37822 26.0117 -14.3166 -0.0 0.0 -0.0 7.16305 -4.68118 -13.8552 6.3661 0.150194 -66.9503 1.3278 33.3334 -0.397536 54.8333 1.33614 6.61141 -0.925953 -28.9079 -6.2716 0.0 0.0 0.0 23.9314 -20.6043 1.65919 -36.8088 -0.276327 5.54634 -5.1081 28.9533 0.806034 36.0591 -0.0 -0.0 -0.0 0.0 -0.0 -21.6242 18.333 -3.57441 -27.4165 -0.134317 -4.16526 20.6946 4.6588 2.87615 9.99402 -0.0 -0.0 0.0 0.0 0.0 
2907.87920553 664.581 -1659.48602086 19.8318353807 78.1914329494 -16.38478935 0.346413 -0.379528 -1.49405 0.34761 -0.2837 -1.51516 0.355746 0.0314922 -1.54116 0.352494 -0.212272 -1.5268 -11.4785 11.632 9.60606 -11.3397 15.7777 12.386 -0.0 0.0 -0.0 7.99178 22.0061 14.0548 -11.0553 -11.5084 65.8675 0.425725 -11.9089 0.0444036 80.9525 -3.94881 -8.66255 -4.37822 26.0117 -14.3166 -0.0 0.0 -0.0 7.16305 -4.68118 -13.8552 6.3661 0.150194 -66.9503 1.3278 33.3334 -0.397536 54.8333 1.33614 6.61141 -0.925953 -28.9079 -6.2716 0.0 0.0 0.0 23.9314 -20.6043 1.65919 -36.8088 -0.276327 5.54634 -5.1081 28.9533 0.806034 36.0591 -0.0 -0.0 -0.0 0.0 -0.0 -21.6242 18.333 -3.57441 -27.4165 -0.134317 -4.16526 20.6946 4.6588 2.87615 9.99402 -0.0 -0.0 0.0 0.0 0.0 
2876.97098939 667.326 -1650.75890928 23.2287813238 77.9528925401 -19.3673652176 0.280421 -0.300815 -1.67222 0.281956 -0.193813 -1.68797 0.2884 0.15679 -1.69181 0.284423 -0.112327 -1.69534 -10.82 9.33682 8.7459 -10.6661 11.8411 10.8817 -0.0 0.0 -0.0 8.52749 23.439 14.6601 -11.3272 -11.9507 65.6585 0.619663 -17.0647 0.0929677 81.0809 -3.96374 -8.66952 -4.2447 26.3272 -13.3373 -0.0 0.0 -0.0 6.63792 -5.28382 -12.8502 4.12634 1.78386 -65.3008 1.09352 28.4434 -0.277151 53.4792 1.22899 6.47499 -1.08741 -28.9639 -5.42404 0.0 0.0 0.0 20.6116 -23.3993 3.23048 -35.676 -0.214839 5.38352 3.1673 29.1713 -0.492145 37.0337 -0.0 -0.0 -0.0 0.0 -0.0 -19.1046 15.9978 -3.13365 -33.9899 0.129321 -5.13902 13.7624 1.80492 1.95577 12.6592 -0.0 -0.0 0.0 0.0 0.0 
2848.52090143 675.18 -1647.29704941 26.009949989 78.1894792494 -21.4742457413 0.382467 -0.237629 -2.00707 0.384701 -0.109459 -2.01811 0.389441 0.303672 -1.99814 0.38387 -0.0156419 -2.02102 -12.2118 9.09678 8.29162 -12.0981 11.962 10.5143 -0.0 0.0 -0.0 9.4304 23.5392 15.9756 -9.9665 -11.6822 65.4253 0.70291 -19.1982 0.118879 81.5858 -4.0226 -8.69662 -4.32543 25.1101 -14.6089 -0.0 0.0 -0.0 6.53034 -6.82603 -12.6233 1.73457 1.41415 -64.0055 0.910093 24.2671 -0.195669 51.4264 1.07281 6.26349 -1.13692 -28.9111 -5.13526 0.0 0.0 0.0 16.8618 -27.8133 3.85184 -33.5828 -0.109753 5.07962 5.0074 29.755 -0.777595 40.1134 -0.0 -0.0 -0.0 0.0 -0.0 -16.1761 13.8734 -2.04561 -38.5287 0.375829 -5.79122 14.0455 1.09928 1.98977 13.4946 -0.0 -0.0 0.0 0.0 0.0 
2799.13754701 681.6 -1660.40650578 22.1057188788 77.4904434177 -16.0735816073 0.762553 -0.467191 -2.73305 0.766661 -0.292401 -2.75721 0.782104 0.256053 -2.76082 0.771514 -0.183009 -2.76662 -11.1936 7.80452 8.26332 -11.0432 9.33022 10.0467 -0.0 0.0 -0.0 10.3583 23.2462 17.4228 -7.33252 -13.3356 65.5068 0.916097 -24.4086 0.198143 85.2445 -4.45582 -8.87734 -4.71677 24.723 -17.1903 -0.0 0.0 -0.0 6.0341 -7.47119 -11.7025 -4.1625 1.38295 -63.0821 0.474143 13.218 -0.0549362 47.2207 0.777101 5.81361 -0.978622 -27.5391 -5.42229 0.0 0.0 0.0 10.6967 -35.22 2.74911 -29.1575 0.0754113 4.42595 23.5571 27.8943 -3.38787 39.6399 -0.0 -0.0 -0.0 0.0 -0.0 -10.7855 4.77219 -1.95149 -44.2853 0.761658 -6.5875 12.6771 -0.235101 1.79986 12.9075 -0.0 -0.0 0.0 0.0 0.0 
2799.24182724 681.6 -1656.73145977 23.0918871292 78.0049680347 -17.0827244087 0.762553 -0.467191 -2.73305 0.766661 -0.292401 -2.75721 0.782104 0.256053 -2.76082 0.771514 -0.183009 -2.76662 -11.1936 7.80452 8.26332 -11.0432 9.33022 10.0467 -0.0 0.0 -0.0 10.3583 23.2462 17.4228 -7.33252 -13.3356 65.5068 0.916097 -24.4086 0.198143 85.2445 -4.45582 -8.87734 -4.71677 24.723 -17.1903 -0.0 0.0 -0.0 6.0341 -7.47119 -11.7025 -4.1625 1.38295 -63.0821 0.474143 13.218 -0.0549362 47.2207 0.777101 5.81361 -0.978622 -27.5391 -5.42229 0.0 0.0 0.0 10.6967 -35.22 2.74911 -29.1575 0.0754113 4.42595 23.5571 27.8943 -3.38787 39.6399 -0.0 -0.0 -0.0 0.0 -0.0 -10.7855 4.77219 -1.95149 -44.2853 0.761658 -6.5875 12.6771 -0.235101 1.79986 12.9075 -0.0 -0.0 0.0 0.0 0.0 
